<svg version="1.2" xmlns="http://www.w3.org/2000/svg" viewBox="0 0 1132 1132" width="256" height="256">
	<title>NPC-Vector-Colour-ai</title>
	<style>
		.s0 { fill: #ec1c24 } 
		.s1 { fill: #000000 } 
		.s2 { fill: #1b75bb } 
		.s3 { fill: #ffffff } 
		.s4 { fill: #29b473 } 
		.s5 { fill: #231f20 } 
	</style>
	<g id="Layer 1">
		<g id="&lt;Group&gt;">
			<path id="&lt;Path&gt;" class="s0" d="m725.5 573.5l23.9 23.9c19.7 19.6 46.4 30.7 74.2 30.7h179.3c2.9-20.4 4.3-41.2 4.3-62.1 0-59.6-11.6-117.4-34.6-171.7-11.1-26.2-24.8-51.4-40.7-75-15.8-23.4-33.9-45.3-53.9-65.3-20-20-41.9-38.1-65.3-53.9-23.6-15.9-48.8-29.6-75-40.7-54.3-23-112.1-34.6-171.7-34.6-59.6 0-117.4 11.6-171.7 34.6-26.2 11.1-51.4 24.8-75 40.7-23.4 15.8-45.3 33.9-65.3 53.9-20 20-38.1 41.9-53.9 65.3-15.9 23.6-29.6 48.8-40.7 75-23 54.3-34.6 112.1-34.6 171.7 0 59.6 11.6 117.4 34.6 171.7 11.1 26.2 24.8 51.4 40.7 75 15.8 23.4 33.9 45.3 53.9 65.3 20 20 41.9 38.1 65.3 53.9 23.6 15.9 48.8 29.6 75 40.7 54.3 23 112.1 34.6 171.7 34.6 59.6 0 117.4-11.6 171.7-34.6 26.2-11.1 51.4-24.8 75-40.7 23.4-15.8 45.3-33.9 65.3-53.9 20-20 38.1-41.9 53.9-65.3 11.8-17.5 22.4-35.9 31.6-55l-425.6 0.1v-103.1c0-10.3 7.8-18.8 17.8-20h0.5 44.9c13.2 0 24-10.7 24-24 0-13.2-10.8-24-24-24h-70.6c-25.9-0.2-46.8-21.2-46.8-47.2h159.9c30.8 0 60.2 12.3 81.9 34z"/>
			<g id="&lt;Group&gt;">
				<g id="&lt;Group&gt;">
					<path id="&lt;Compound Path&gt;" class="s1" d="m0.2 611.4l0.6-37.1 59-45.5-58.3-0.4 0.4-22 76.6 1.2-0.6 37.5-58.4 44.8 57.7 0.4-0.4 22.4z"/>
				</g>
				<g id="&lt;Group&gt;">
					<path id="&lt;Compound Path&gt;" class="s1" d="m7.8 477.5l4.1-22.9 75.5 13.5-4.1 23z"/>
				</g>
				<g id="&lt;Group&gt;">
					<path id="&lt;Compound Path&gt;" fill-rule="evenodd" class="s1" d="m28.6 390.5l10.5-29.4 86.3-13.8-8.5 24-15.5 2.6-16.6 46.6 10.4 11.5-8.8 24.9zm55-14.3l-34.4 5.3 23.3 25.7z"/>
				</g>
				<g id="&lt;Group&gt;">
					<path id="&lt;Compound Path&gt;" class="s1" d="m127.5 251.4c-5-3.2-8.4-2.2-12.4 3.5l-3.2 5-4.5 6.9-4.6 7.2c-6 9.3-6 9.3-6.9 12-1.5 4.2-0.6 6.9 3.1 10 1.6 1.4 7.3 5.4 11.5 8.1 8.7 5.6 12.7 7 16.3 5.5 2.9-1.3 5.2-3.7 8.6-8.7 1.5-2.1 1.5-2.1 9.3-14.1 8.4-12.8 9.2-15.7 6.1-20.1-0.7-0.7-1.5-1.3-3.4-2.6l-0.7-0.4-0.9-0.6-16 24.9-12-7.8 28.4-43.9 8.9 5.7c10.6 6.9 14.1 9.7 16.8 13.2 4.5 6.1 4.5 12.5 0.1 21.2-1.1 2.1-4.8 8.1-17.1 27.1-9.5 14.8-13.5 20.3-17 23.8-6.1 6-11.7 8.3-18.5 7-5.6-0.8-10.4-3.3-22.4-11-13.8-8.9-18.8-13.3-21.7-18.7-3.2-6.1-2.9-12.4 1.3-21.4 2.3-4.8 7.1-12.8 15-25.1 11.4-17.6 15.3-23 18.9-26.4 8.9-8.4 16-8.3 29.4 0.5z"/>
				</g>
				<g id="&lt;Group&gt;">
					<path id="&lt;Compound Path&gt;" fill-rule="evenodd" class="s1" d="m163.1 169.8l22.5-21.7 83.4 26.1-18.3 17.7-15-4.6-35.6 34.3 4.2 15-19 18.3zm55.6 11.7l-33.1-10.5 9.4 33.3z"/>
				</g>
				<g id="&lt;Group&gt;">
					<path id="&lt;Compound Path&gt;" fill-rule="evenodd" class="s1" d="m235.8 105.2l56.8-33.9c11.6-7 17.4-9 23-8.1 5.7 0.8 10.8 5.3 16.1 14.2 7.3 12.3 7.2 18.9 0 25.7 9-3.5 13.5-1.5 19.3 8.6l6.1 10.4-20.3 12.1-4.9-8.2c-4.3-7-7.2-7.3-16.1-1.8l-30.7 18.3 9.9 16.6-19.9 11.9zm71 2.6c9.7-5.7 10.9-8.1 7-14.6-2.6-4.2-4-5.8-6.1-6.4-2.4-0.7-4.3 0-10.3 3.6l-32 19.1 10.1 17z"/>
				</g>
				<g id="&lt;Group&gt;">
					<path id="&lt;Compound Path&gt;" fill-rule="evenodd" class="s1" d="m383.8 31l29.9-9.3 62.8 60.8-24.4 7.6-11.3-10.8-47.2 14.6-2.9 15.3-25.3 7.8zm44.5 35.4l-24.9-24.2-6.5 34z"/>
				</g>
				<g id="&lt;Group&gt;">
					<path id="&lt;Compound Path&gt;" fill-rule="evenodd" class="s1" d="m541.3 0l58.6 2c14.8 0.5 18.6 1.1 23.4 3.7 7.5 4.1 10.2 11.2 9.7 25.6-0.6 14.6-3.5 22.1-9.9 25.8-4.6 2.6-9.8 3.2-23.1 2.8l-37.5-1.3-0.6 18.8-23.2-0.8zm55.7 41.2c9.5 0.3 12.4-1.7 12.6-8.9 0.3-9.2-1.9-11.3-11.9-11.7l-33.9-1.2-0.7 20.6z"/>
				</g>
				<g id="&lt;Group&gt;">
					<path id="&lt;Compound Path&gt;" fill-rule="evenodd" class="s1" d="m691.2 14.9l30.3 7.7 21.8 84.7-24.8-6.3-4-15.1-47.9-12.2-10.5 11.4-25.6-6.5zm19.4 53.5l-8.5-33.8-23.4 25.6z"/>
				</g>
				<g id="&lt;Group&gt;">
					<path id="&lt;Compound Path&gt;" class="s1" d="m782.7 43.1l20.9 10.3-25.3 51.8 47.5 23.2-8.4 17-68.4-33.4z"/>
				</g>
				<g id="&lt;Group&gt;">
					<path id="&lt;Compound Path&gt;" class="s1" d="m939 139.6l-10.4 13.9-49.6-37.1-7.9 10.6 46.7 35-9.1 12.1-46.7-35-8.2 10.9 50.3 37.6-10.4 13.9-68.7-51.4 46-61.4z"/>
				</g>
				<g id="&lt;Group&gt;">
					<path id="&lt;Compound Path&gt;" class="s1" d="m936.6 211c-3.8 3.6-4.4 4.9-3.3 7.6 0.6 1.8 4.5 7 9.4 12.6 17.7 20.3 20.4 22.2 25.2 18.1 2.3-2 3.1-4.7 2.1-7-1-2.5-1-2.5-8.9-11.6l-13.9-16c-9.3-10.7-12.5-15.6-13.9-21-1.4-6 1.5-11.9 9.4-18.8 10.4-9.1 17.4-10 26.6-3.4 5.3 3.6 11.6 10 22.7 22.7 17.6 20.2 21.2 25.4 22.1 31.9 0.8 6.3-1.6 10.7-10.3 18.2l-14.9-17.1c5-4.4 4.2-6.7-5.7-18.1-4.9-5.6-11.7-13-14.2-15.6-4.5-4.4-7-4.9-10.3-2-2.5 2.1-3 4.6-1.4 7.7 0.7 1.3 0.9 1.7 5.8 7.5l14.3 16.4c1.3 1.5 7.9 9.5 10.2 12.6 9.1 11.5 8 20.1-3.6 30.2-10.6 9.3-18 10.2-27.3 3.3-4.7-3.5-12.7-11.6-23.6-24.2-17.5-20-20.9-24.8-22.8-32.2-1.3-5 1.5-10.7 8.4-16.7 0.5-0.4 1.6-1.4 2.9-2.4z"/>
				</g>
				<g id="&lt;Group&gt;">
					<path id="&lt;Compound Path&gt;" class="s1" d="m1037.6 290.5l-16.7-29.8 16.6-9.2 44.6 80-16.5 9.3-16.7-29.9-50.4 28.1-11.3-20.4z"/>
				</g>
				<g id="&lt;Group&gt;">
					<path id="&lt;Compound Path&gt;" class="s1" d="m1089.7 353.5l8.3 21.8-71.6 27.4-8.3-21.8z"/>
				</g>
				<g id="&lt;Group&gt;">
					<path id="&lt;Compound Path&gt;" class="s1" d="m1109.6 402.9l7.3 36.4-48 57 57-12 4.4 21.6-75.2 15.1-7.4-36.7 47.6-56.2-56.5 11.9-4.4-22z"/>
				</g>
				<g id="&lt;Group&gt;">
					<path id="&lt;Compound Path&gt;" class="s1" d="m1129.7 623.9l-17.3-0.5 1.5-61.9-13.2-0.3-1.5 58.4-15.1-0.4 1.4-58.4-13.5-0.3-1.6 62.7-17.3-0.4 2.1-85.8 76.6 1.9z"/>
				</g>
			</g>
			<g id="&lt;Group&gt;">
				<g id="&lt;Group&gt;">
					<path id="&lt;Compound Path&gt;" class="s1" d="m241.4 994.9c-7.6 8.1-10.4 10.7-13.9 12.2-6.6 2.8-13.3 0.9-22.7-6.6-3.8-2.8-10.6-8.9-21.9-19.2-16.3-14.9-20.9-20.4-22.8-27.6-2.3-8.7 1.5-16.1 16.8-32.9 13.6-15 20.2-18.8 29.3-16.7 7.8 1.6 13.9 5.8 29.8 20.3 21.1 19.3 25.3 23.9 28 30.7 2.5 6.5 0.1 13.4-7.5 21.7l-1.7 1.9-16.5-15c5.3-6.5 4.5-8.2-10.5-21.8-14.1-12.9-16.9-14.9-20.7-14.9-3.8 0-6.3 1.9-14.7 11.1-12.4 13.5-12 15.7 4.5 30.8 12.9 11.7 14.8 13.3 18.1 14.5 3.4 1.2 6 0.3 9.7-3.8z"/>
				</g>
				<g id="&lt;Group&gt;">
					<path id="&lt;Compound Path&gt;" fill-rule="evenodd" class="s1" d="m355.9 1008c9.3 7.7 11.3 15.8 6.7 27.3q-1.7 4.4-8.5 16.6c-9.1 16.1-14.4 21.7-22.8 23.2-5.9 1.1-12.4-0.4-22.4-5.5-3.7-1.8-12.7-6.7-19.2-10.3-15.9-9-23.9-13.8-27.5-16.9-6.6-5.5-9.4-10.7-9.1-17 0.1-6.4 2.3-11.6 10.5-26.3 6.3-11.2 8.1-13.9 11.8-17.7 5.9-6.1 11.9-7.7 20.7-5.7 6.5 1.6 12.9 4.6 30.5 14.5 19.3 10.8 25.1 14.3 29.3 17.8zm-59.9-10.3c-3.9 0.6-6.5 3.4-11.9 13.1-5.5 9.8-6.8 13.8-5.4 17.4 1.4 3.7 4.5 5.9 19.9 14.5 17.5 9.9 21.5 11.3 25.6 9.4 3.2-1.3 5.6-4.5 10.6-13.4 9.5-16.8 9.3-17.2-15.8-31.3-14.9-8.4-19.3-10.2-23-9.7z"/>
				</g>
				<g id="&lt;Group&gt;">
					<path id="&lt;Compound Path&gt;" fill-rule="evenodd" class="s1" d="m416.7 1030.8l30.1 8.6 19.1 85.3-24.5-7-3.5-15.3-47.5-13.6-10.9 11.1-25.4-7.3zm17.8 54l-7.5-33.9-24.1 24.8z"/>
				</g>
				<g id="&lt;Group&gt;">
					<path id="&lt;Compound Path&gt;" class="s1" d="m492.9 1049.6l23.2 1.8-4.5 57.5 52.6 4.2-1.5 18.9-75.9-6z"/>
				</g>
				<g id="&lt;Group&gt;">
					<path id="&lt;Compound Path&gt;" class="s1" d="m577.3 1053.8l23.3-1.1 3.6 76.6-23.4 1.1z"/>
				</g>
				<g id="&lt;Group&gt;">
					<path id="&lt;Compound Path&gt;" class="s1" d="m648.9 1066.2l-33.6 6.3-3.5-18.7 90.1-16.9 3.5 18.6-33.6 6.3 10.7 56.8-22.9 4.3z"/>
				</g>
				<g id="&lt;Group&gt;">
					<path id="&lt;Compound Path&gt;" class="s1" d="m711.9 1031.8l22.1-7.5 24.6 72.6-22.1 7.5z"/>
				</g>
				<g id="&lt;Group&gt;">
					<path id="&lt;Compound Path&gt;" fill-rule="evenodd" class="s1" d="m823.2 982.2c11.5-3.6 19.4-1 26.6 9.1q2.8 3.8 9.4 16.2c8.7 16.3 10.5 23.8 7.2 31.7-2.2 5.6-7 10.2-16.7 15.9-3.5 2.1-12.5 7-19.1 10.5-16.1 8.6-24.5 12.7-29 14-8.2 2.7-14.1 2.2-19.3-1.5-5.3-3.5-8.5-8.2-16.4-23-6.1-11.4-7.4-14.3-8.6-19.5-1.9-8.3 0-14.2 6.5-20.5 4.8-4.7 10.8-8.4 28.6-17.9 19.5-10.3 25.6-13.3 30.8-15zm-41 44.8c-1.6 3.6-0.6 7.4 4.6 17.1 5.2 10 8 13.2 11.7 14 3.9 0.8 7.5-0.6 23-8.9 17.8-9.4 21.1-12 21.7-16.4 0.6-3.5-0.7-7.2-5.5-16.3-9.1-17-9.5-17.1-34.8-3.6-15.2 8.1-19.1 10.8-20.7 14.1z"/>
				</g>
				<g id="&lt;Group&gt;">
					<path id="&lt;Compound Path&gt;" class="s1" d="m850.7 965.6l27.7-24.7 73.4 12.7-39.1-43.2 16.5-14.7 50.9 57.3-28 24.9-72.5-12.7 38.8 42.8-16.8 14.9z"/>
				</g>
			</g>
			<g id="&lt;Group&gt;">
				<g id="&lt;Group&gt;">
					<path id="&lt;Path&gt;" class="s1" d="m419.5 587l-68.1-68.1c-18.5-18.4-48.3-18.4-66.7 0l70.8 70.8c5.7-1.8 11.8-2.7 18.1-2.7z"/>
					<path id="&lt;Path&gt;" class="s1" d="m313.1 638.1l-25.4-25.3c-18.4-18.5-48.2-18.5-66.6 0l91.1 91.1"/>
					<path id="&lt;Path&gt;" class="s1" d="m346.6 593.2l-56.4-56.4c-18.4-18.4-48.2-18.4-66.6 0l91.8 91.9c5.3-15.6 16.6-28.3 31.2-35.5z"/>
					<path id="&lt;Path&gt;" class="s1" d="m601.1 634.7q0 0 0 0"/>
					<path id="&lt;Path&gt;" class="s1" d="m443.7 531.1c-18.4-18.5-48.2-18.5-66.6 0l55.9 55.9h66.6z"/>
					<path id="&lt;Path&gt;" class="s2" d="m537.9 654.7q0-0.3 0-0.5z"/>
				</g>
			</g>
			<path id="&lt;Path&gt;" class="s2" d="m373.7 586.7c-34 0-61.5 27.6-61.5 61.5v55.7 223.1q3.5 2.5 7.1 4.9c23.6 15.9 48.8 29.6 75 40.7 45.7 19.3 93.9 30.7 143.6 33.8v-248.6-103.1-0.5c0.2-10.1 8-18.4 17.8-19.5h45.4c13.3 0 24-10.7 24-24 0-13.2-10.7-24-24-24h-40.8z"/>
			<g id="&lt;Group&gt;">
				<path id="&lt;Path&gt;" class="s3" d="m533.5 703.7c1.6 0 3.1 0.4 4.4 1.2v-35.7c-1.2-0.7-2.7-1.2-4.4-1.2-12.8 0-12.8 27.3-25.7 27.3-12.9 0-12.9-27.3-25.7-27.3-12.9 0-12.9 27.3-25.8 27.3-12.8 0-12.8-27.3-25.7-27.3-12.9 0-12.9 27.3-25.7 27.3-12.9 0-12.9-27.3-25.8-27.3-12.8 0-12.8 27.3-25.7 27.3-12.8 0-12.8-27.3-25.7-27.3-8.2 0-11.1 10.9-15.5 18.9v35.7c4.3-8 7.3-18.9 15.5-18.9 12.8 0 12.8 27.2 25.7 27.2 12.9 0 12.9-27.2 25.7-27.2 12.9 0 12.9 27.2 25.8 27.2 12.8 0 12.8-27.2 25.7-27.2 12.9 0 12.9 27.2 25.7 27.2 12.9 0 12.9-27.2 25.8-27.2 12.8 0 12.8 27.2 25.7 27.2 12.9 0 12.9-27.2 25.7-27.2z"/>
			</g>
			<g id="&lt;Group&gt;">
				<path id="&lt;Path&gt;" class="s3" d="m533.5 801.3c1.6 0 3.1 0.5 4.4 1.2v-35.6c-1.2-0.8-2.7-1.2-4.4-1.2-12.8 0-12.8 27.2-25.7 27.2-12.9 0-12.9-27.2-25.7-27.2-12.9 0-12.9 27.2-25.8 27.2-12.8 0-12.8-27.2-25.7-27.2-12.9 0-12.9 27.2-25.7 27.2-12.9 0-12.9-27.2-25.8-27.2-12.8 0-12.8 27.2-25.7 27.2-12.8 0-12.8-27.2-25.7-27.2-8.2 0-11.1 10.9-15.5 18.9v35.6c4.3-8 7.3-18.9 15.5-18.9 12.8 0 12.8 27.3 25.7 27.3 12.9 0 12.9-27.3 25.7-27.3 12.9 0 12.9 27.3 25.8 27.3 12.8 0 12.8-27.3 25.7-27.3 12.9 0 12.9 27.3 25.7 27.3 12.9 0 12.9-27.3 25.8-27.3 12.8 0 12.8 27.3 25.7 27.3 12.9 0 12.9-27.3 25.7-27.3z"/>
			</g>
			<g id="&lt;Group&gt;">
				<path id="&lt;Path&gt;" class="s3" d="m533.5 899c1.6 0 3.1 0.4 4.4 1.2v-35.6c-1.2-0.8-2.7-1.3-4.4-1.3-12.8 0-12.8 27.3-25.7 27.3-12.9 0-12.9-27.3-25.7-27.3-12.9 0-12.9 27.3-25.8 27.3-12.8 0-12.8-27.3-25.7-27.3-12.9 0-12.9 27.3-25.7 27.3-12.9 0-12.9-27.3-25.8-27.3-12.8 0-12.8 27.3-25.7 27.3-12.8 0-12.8-27.3-25.7-27.3-8.2 0-11.1 10.9-15.5 19v35.6c4.3-8 7.3-18.9 15.5-18.9 12.8 0 12.8 27.2 25.7 27.2 12.9 0 12.9-27.2 25.7-27.2 12.9 0 12.9 27.2 25.8 27.2 12.8 0 12.8-27.2 25.7-27.2 12.9 0 12.9 27.2 25.7 27.2 12.9 0 12.9-27.2 25.8-27.2 12.8 0 12.8 27.2 25.7 27.2 12.9 0 12.9-27.2 25.7-27.2z"/>
			</g>
			<g id="&lt;Group&gt;">
				<path id="&lt;Path&gt;" class="s4" d="m465.6 260c30-9.8 61.6-14.9 93.2-14.9q0.6 0 1.1 0h0.1q0.5 0 1.1 0c43.9 0 87.2 9.1 127 26.1 3.2-3.1 6.8-5.8 10.6-7.9-42.9-19.3-89.9-29.7-137.6-29.7q-0.6 0-1.2 0-0.5 0-1.1 0c-43.1 0-86 9.1-125.5 26.4z"/>
				<path id="&lt;Path&gt;" class="s4" d="m317.7 347.7q-9.3 11.4-17.4 23.8c-19.6 30-33.5 63.3-41.1 98.9l11.2 2.4c7.4-34.2 20.7-66.2 39.6-95q7.6-11.7 16.4-22.6-4.4-3.7-8.7-7.5z"/>
				<path id="&lt;Path&gt;" class="s4" d="m956.3 537.6c-16.4-21.6-44.2-30.7-69.9-23.6q-2.2-17.2-6.2-33.9c19.7 15.8 46.9 19.2 70.1 7.9-18.4-20.2-47.2-26.9-72.4-17.2q-4.6-16.8-10.9-32.9c20.9 13.8 48.2 14.8 70.2 1.6-20.2-18.6-49.6-22.7-73.9-10.7q-6.9-16.1-15.5-31.2c21.8 11.2 48.4 9.5 68.7-5.2-21.6-16.8-51.2-18.3-74.4-4.4q-10.1-16.4-22.3-31.6c23 10.3 50.3 6.5 69.9-10.3-23.6-15.2-53.9-13.8-75.9 3.1q-8.4-9.8-17.5-18.9c-10.1-10-20.7-19.3-31.9-27.8-4.7 0.3-9 2.1-12.5 5 12.8 9.3 24.9 19.7 36.3 30.9q8.1 8.1 15.5 16.7c-22.8 12.8-36 38.1-33.1 64.5 23.1-9.6 38.5-31.4 40.4-55.8q11.3 14.1 20.8 29.4c-24.7 10.4-40.9 35-40.3 62.2 24.5-7.8 41.9-28.9 45.4-53.8q8.7 15.2 15.7 31.4c-25.5 8.3-43.6 31.3-45.4 58.4 24.6-5.5 43.5-24.4 49.5-48.2q5.9 15.1 10.2 30.9c-26.2 6-46.5 27.4-50.6 54.4 24.8-3.4 45.2-20.3 53.3-43.3q3.5 15.4 5.5 31.2c-27 3.4-49.3 23.2-55.8 49.9 25.1-1.2 47-16.5 57-38.9q1.4 15.1 1.4 30.6 0 2 0 3.9l11.5 0.2q0-2.1 0-4.1 0-17.2-1.7-33.9c18.2 17 44.9 22.6 68.8 13.5z"/>
			</g>
			<path id="&lt;Path&gt;" class="s3" d="m373.1 501.9h96.6l19.6-19.5h42.5v57.1h11.5v-51.2l51.3 51.2h16.2l-57.2-57.1h82.8c15 0 29.7-3.1 43.3-8.9l0.6-0.3c12.5-5.5 23.9-13.2 33.7-23v0.2c18.5-18.5 28.9-43.6 29.1-69.7v-44.9-1.5q0.3-4.5 0.3-9.1c0-12.6 10.2-22.8 22.7-22.8v-0.2c0-24.7-20-44.7-44.6-44.7-13 0-25 5.3-33.7 14-5.5 5.5-9.7 12.3-12 20.2-3.7 12.6-11 23.5-20.5 31.6-5.2-9.9-11.9-19.1-20-27.2v0.2c-23.2-23.2-54.7-36.3-87.5-36.3h-177.2l22.3 22.2h-70.9l20.4 20.2h-70.4l38.2 38.2c39.8 39.6 93.6 61.9 149.7 61.9h12.3z"/>
			<g id="&lt;Group&gt;">
				<path id="&lt;Path&gt;" class="s5" d="m721.7 293.6c-4.6 0-8.4-3.7-8.4-8.4 0-4.6 3.8-8.4 8.4-8.4 4.6 0 8.4 3.8 8.4 8.4 0 4.7-3.8 8.4-8.4 8.4z"/>
			</g>
			<path id="&lt;Path&gt;" class="s2" d="m1006.8 586.7h-268l10.6 10.7c19.7 19.6 46.4 30.7 74.2 30.7h179.3q2.9-20.5 3.9-41.4z"/>
			<path id="&lt;Compound Path&gt;" fill-rule="evenodd" class="s1" d="m566 1024.5c-253.5 0-458.5-205-458.5-458.5 0-253.5 205-458.5 458.5-458.5 253.5 0 458.5 205 458.5 458.5 0 253.5-205 458.5-458.5 458.5zm-28.1-266.7v-103.1c0-10.3 7.8-18.8 17.8-20h45.4c13.2 0 24-10.7 24-24 0-13.2-10.8-24-24-24h-70.6c-25.9-0.2-46.8-21.2-46.8-47.2h159.9c30.8 0 60.2 12.3 81.9 34l23.9 23.9c19.7 19.6 46.4 30.7 74.2 30.7h179.3c2.9-20.4 4.3-41.2 4.3-62.1 0-59.6-11.6-117.4-34.6-171.7-11.1-26.2-24.8-51.4-40.7-75-15.8-23.4-33.9-45.3-53.9-65.3-20-20-41.9-38.1-65.3-53.9-23.6-15.9-48.8-29.6-75-40.7-54.3-23-112.1-34.6-171.7-34.6-59.6 0-117.4 11.6-171.7 34.6-26.2 11.1-51.4 24.8-75 40.7-23.4 15.8-45.3 33.9-65.3 53.9-20 20-38.1 41.9-53.9 65.3-15.9 23.6-29.6 48.8-40.7 75-23 54.3-34.6 112.1-34.6 171.7 0 59.6 11.6 117.4 34.6 171.7 11.1 26.2 24.8 51.4 40.7 75 15.8 23.4 33.9 45.3 53.9 65.3 20 20 41.9 38.1 65.3 53.9 23.6 15.9 48.8 29.6 75 40.7 54.3 23 112.1 34.6 171.7 34.6 59.6 0 117.4-11.6 171.7-34.6 26.2-11.1 51.4-24.8 75-40.7 23.4-15.8 45.3-33.9 65.3-53.9 20-20 38.1-41.9 53.9-65.3 11.8-17.5 22.4-35.9 31.6-55z"/>
		</g>
	</g>
</svg>